<svg viewbox="-38.025 -13 700 250" width="100%" height="auto" version="1.1" xmlns="http://www.w3.org/2000/svg" xmlns:xlink="http://www.w3.org/1999/xlink">
    <g class="neatchart"><rect class="chart__background" fill="none" x="-38.025" y="-13" width="700" height="250"></rect>
      <g class="chart__gridLines" stroke="#666666" stroke-opacity="0.4" stroke-width="1" vector-effect="non-scaling-stroke" shape-rendering="crispEdges">
        <path class="chart__gridLinePaths" d="M0 0 655.475 0  M0 217.5 L655.475 217.5  M-8.45,178.66 655.475,178.66 M-8.45,139.82 655.475,139.82 M-8.45,100.98 655.475,100.98 M-8.45,62.14 655.475,62.14 M-8.45,23.3 655.475,23.3M161.11 0 161.11 217.5 M323.23 0 323.23 217.5 M485.36 0 485.36 217.5 M647.49 0 647.49 217.5 "></path>
      </g>
      <g class="chart__gridLabels" fill="#666666" font-family="Helvetica, Arial, sans-serif" font-size="13px">
        <text text-anchor="end" x="-5.2" y="5.2">28.0</text><text text-anchor="end" x="-5.2" y="222.7">0.0</text><text text-anchor="end" x="-13" y="183.86">5.</text><text text-anchor="end" x="-13" y="145.02">10.</text><text text-anchor="end" x="-13" y="106.18">15.</text><text text-anchor="end" x="-13" y="67.34">20.</text><text text-anchor="end" x="-13" y="28.5">25.</text><text text-anchor="middle" y="230.5" x="161.11">Apr 25</text><text text-anchor="middle" y="230.5" x="323.23">Jul 24</text><text text-anchor="middle" y="230.5" x="485.36">Oct 22</text><text text-anchor="end" y="230.5" x="655.475">Jan 20</text>
      </g>
      <g class="chart__bars" fill="#7cb5ec" fill-opacity="0.5" stroke="#7cb5ec" stroke-width="0" stroke-linecap="square">
        <path d=" M1.1378846153846,217.5 11.222115384615,217.5 11.222115384615,186.43 1.1378846153846,186.43 Z M13.747884615385,217.5 23.832115384615,217.5 23.832115384615,178.66 13.747884615385,178.66 Z M26.357884615385,217.5 36.442115384615,217.5 36.442115384615,186.43 26.357884615385,186.43 Z M38.967884615385,217.5 49.052115384615,217.5 49.052115384615,132.05 38.967884615385,132.05 Z M51.577884615385,217.5 61.662115384615,217.5 61.662115384615,147.59 51.577884615385,147.59 Z M64.187884615385,217.5 74.272115384615,217.5 74.272115384615,155.36 64.187884615385,155.36 Z M76.797884615385,217.5 86.882115384615,217.5 86.882115384615,170.89 76.797884615385,170.89 Z M89.407884615385,217.5 99.492115384615,217.5 99.492115384615,155.36 89.407884615385,155.36 Z M102.01788461538,217.5 112.10211538462,217.5 112.10211538462,209.73 102.01788461538,209.73 Z M114.62788461538,217.5 124.71211538462,217.5 124.71211538462,0 114.62788461538,0 Z M127.23788461538,217.5 137.32211538462,217.5 137.32211538462,0 127.23788461538,0 Z M139.84788461538,217.5 149.93211538462,217.5 149.93211538462,46.61 139.84788461538,46.61 Z M152.45788461538,217.5 162.54211538462,217.5 162.54211538462,132.05 152.45788461538,132.05 Z M165.06788461538,217.5 175.15211538462,217.5 175.15211538462,209.73 165.06788461538,209.73 Z M177.67788461538,217.5 187.76211538462,217.5 187.76211538462,209.73 177.67788461538,209.73 Z M190.28788461538,217.5 200.37211538462,217.5 200.37211538462,217.5 190.28788461538,217.5 Z M202.89788461538,217.5 212.98211538462,217.5 212.98211538462,155.36 202.89788461538,155.36 Z M215.50788461538,217.5 225.59211538462,217.5 225.59211538462,155.36 215.50788461538,155.36 Z M228.11788461538,217.5 238.20211538462,217.5 238.20211538462,163.13 228.11788461538,163.13 Z M240.72788461538,217.5 250.81211538462,217.5 250.81211538462,163.13 240.72788461538,163.13 Z M253.33788461538,217.5 263.42211538462,217.5 263.42211538462,170.89 253.33788461538,170.89 Z M265.94788461538,217.5 276.03211538462,217.5 276.03211538462,201.96 265.94788461538,201.96 Z M278.55788461538,217.5 288.64211538462,217.5 288.64211538462,186.43 278.55788461538,186.43 Z M291.16788461538,217.5 301.25211538462,217.5 301.25211538462,217.5 291.16788461538,217.5 Z M303.77788461538,217.5 313.86211538462,217.5 313.86211538462,217.5 303.77788461538,217.5 Z M316.38788461538,217.5 326.47211538462,217.5 326.47211538462,217.5 316.38788461538,217.5 Z M328.99788461538,217.5 339.08211538462,217.5 339.08211538462,217.5 328.99788461538,217.5 Z M341.60788461538,217.5 351.69211538462,217.5 351.69211538462,217.5 341.60788461538,217.5 Z M354.21788461538,217.5 364.30211538462,217.5 364.30211538462,217.5 354.21788461538,217.5 Z M366.82788461538,217.5 376.91211538462,217.5 376.91211538462,170.89 366.82788461538,170.89 Z M379.43788461538,217.5 389.52211538462,217.5 389.52211538462,100.98 379.43788461538,100.98 Z M392.04788461538,217.5 402.13211538462,217.5 402.13211538462,178.66 392.04788461538,178.66 Z M404.65788461538,217.5 414.74211538462,217.5 414.74211538462,178.66 404.65788461538,178.66 Z M417.26788461538,217.5 427.35211538462,217.5 427.35211538462,186.43 417.26788461538,186.43 Z M429.87788461538,217.5 439.96211538462,217.5 439.96211538462,147.59 429.87788461538,147.59 Z M442.48788461538,217.5 452.57211538462,217.5 452.57211538462,201.96 442.48788461538,201.96 Z M455.09788461538,217.5 465.18211538462,217.5 465.18211538462,201.96 455.09788461538,201.96 Z M467.70788461538,217.5 477.79211538462,217.5 477.79211538462,116.52 467.70788461538,116.52 Z M480.31788461538,217.5 490.40211538462,217.5 490.40211538462,194.2 480.31788461538,194.2 Z M492.92788461538,217.5 503.01211538462,217.5 503.01211538462,186.43 492.92788461538,186.43 Z M505.53788461538,217.5 515.62211538462,217.5 515.62211538462,163.13 505.53788461538,163.13 Z M518.14788461538,217.5 528.23211538462,217.5 528.23211538462,147.59 518.14788461538,147.59 Z M530.75788461538,217.5 540.84211538462,217.5 540.84211538462,201.96 530.75788461538,201.96 Z M543.36788461538,217.5 553.45211538462,217.5 553.45211538462,217.5 543.36788461538,217.5 Z M555.97788461538,217.5 566.06211538462,217.5 566.06211538462,217.5 555.97788461538,217.5 Z M568.58788461538,217.5 578.67211538462,217.5 578.67211538462,217.5 568.58788461538,217.5 Z M581.19788461538,217.5 591.28211538462,217.5 591.28211538462,217.5 581.19788461538,217.5 Z M593.80788461538,217.5 603.89211538462,217.5 603.89211538462,217.5 593.80788461538,217.5 Z M606.41788461538,217.5 616.50211538462,217.5 616.50211538462,217.5 606.41788461538,217.5 Z M619.02788461538,217.5 629.11211538462,217.5 629.11211538462,217.5 619.02788461538,217.5 Z M631.63788461538,217.5 641.72211538462,217.5 641.72211538462,217.5 631.63788461538,217.5 Z M644.24788461538,217.5 654.33211538462,217.5 654.33211538462,217.5 644.24788461538,217.5 Z"></path>
      </g>
    </g>
  </svg>